# xmcd CD database file
#
# Track frame offsets:
#	150
#	14020
#	32275
#	51425
#	77995
#
# Disc length: 1311 seconds
#
# Revision: 0
# Processed by: cddbd v1.5.1PL2 Copyright (c) Steve Scherf et al.
# Submitted via: CDex 1.50beta10
#
DISCID=38051d05
DTITLE=Ralph Siegel - Bernd Meinunger - Christian Dornaus - DSCHINGHIS KHAN ~ The Story of GENGHIS KHAN
DYEAR=2000
DGENRE=Disco
TTITLE0=DSCHINGHIS KHAN [ORIGINAL VERSION]
TTITLE1=THE STORY OF GENGHIS KHAN [RADIO EDIT]
TTITLE2=THE STORY OF GENGHIS KHAN [RAPLESS VERSION]
TTITLE3=THE STORY OF GENGHIS KHAN [LONG VERSION]
TTITLE4=DSCHINGHIS KHAN [DJ FUKUI'S B.F.P. MIX]
EXTD=YEAR: 2000
EXTT0=
EXTT1=
EXTT2=
EXTT3=
EXTT4=
PLAYORDER=
